# xmcd
#
# Track frame offsets:
#	150
#	14297
#	30654
#	44548
#	59285
#	72823
#	84627
#	101039
#	116146
#	129715
#
# Disc length: 1905 seconds
#
# Revision: 0
# Processed by: cddbd v1.5.1PL0 Copyright (c) Steve Scherf et al.
# Submitted via: dBpowerAMP V4.0
#
DISCID=89076f0a
DTITLE=hijos de do#a carmen - hijo de  #acarmen
DYEAR=1900
DGENRE=
TTITLE0=cancion 1
TTITLE1=cancion 2
TTITLE2=cancion3
TTITLE3=cancion4
TTITLE4=cancion5
TTITLE5=cancion6
TTITLE6=cancion7
TTITLE7=cancion8
TTITLE8=cancion9
TTITLE9=cancion10
EXTD=cancio de hijos de #acarmen
EXTT0=
EXTT1=
EXTT2=
EXTT3=
EXTT4=
EXTT5=
EXTT6=
EXTT7=
EXTT8=
EXTT9=
PLAYORDER=
